# xmcd
#
# Track frame offsets:
# 150
# 2387
# 21907
# 46640
# 68290
# 89455
# 108922
# 129585
# 146147
#
# Disc length: 2158 seconds
#
# Revision: 0
# Processed by: cddbd v1.5PL3 Copyright (c) Steve Scherf et al.
# Submitted via: MacMP3 Pro 5.0 (http://mp3.act2.co.jp/)
#
DISCID=66086c09
DTITLE=MOMOHIME BAND - UIJIN
DYEAR=1900
DGENRE=
TTITLE0=count down to ecstasy
TTITLE1=BORN TO BE WILD
TTITLE2=HIGHWAY STAR
TTITLE3=HEART OF GLASS
TTITLE4=SOMEBODY TO LOVE
TTITLE5=NEVER MY LOVE
TTITLE6=HOT STUFF
TTITLE7=OLD FASHIONED LOVE SONG
TTITLE8=ROCK AND ROLL
EXTD=
EXTT0=
EXTT1=
EXTT2=
EXTT3=
EXTT4=
EXTT5=
EXTT6=
EXTT7=
EXTT8=
PLAYORDER=
